<svg xmlns="http://www.w3.org/2000/svg" width="142" height="130" viewBox="0 0 142 130">
  <g fill="none" fill-rule="evenodd" transform="translate(2 3)">
    <path stroke="#E6EEF3" stroke-linecap="round" stroke-width="5" d="M110.835598,28.736163 C113.131989,17.0484261 111.847783,8.1782337 106.419837,4.65328272 C104.610521,3.47829902 102.441326,2.96413207 100,3.05681533 C86.8168413,3.55730489 65.5453033,21.7090696 48.1657609,48.4712174 C27.5677848,80.1893185 20.2478217,111.977141 31.8274457,119.497033 C37.3241261,123.06662 46.0830402,120.536207 55.9782609,113.484804"/>
    <path stroke="#E6EEF3" stroke-linecap="round" stroke-width="5" d="M121.399457,80.6043696 C131.175946,76.8117728 137.187543,71.6206609 137.5,65.6587174 C138.222609,51.8705207 108.216043,39.1054283 70.4483696,37.1261087 C66.9076511,36.9405478 63.4259913,36.8429087 60.0203804,36.8543696 C27.0994739,36.9651598 1.40214685,45.9960446 0.747282609,58.4915978 C0.435443478,64.4418424 5.85650391,70.2115793 15.1494565,74.99975"/>
    <path stroke="#E6EEF3" stroke-linecap="round" stroke-width="5" d="M59.7826087,8.1858913 C53.0936141,2.63601033 46.8201652,-0.344307609 41.7798913,0.0337175 C40.4379239,0.134366304 39.196813,0.465086087 38.0434783,1.05273924 C25.7412457,7.32103989 29.6713391,39.7398293 46.8410326,73.43725 C64.0107261,107.134674 87.9015717,129.36588 100.203804,123.097576 C112.034674,117.069446 108.841478,86.860887 93.3084239,54.5853478"/>
    <path fill="#E6EEF3" fill-rule="nonzero" d="M77.7173913,63.0434783 C77.7173913,67.5457996 74.0675387,71.1956522 69.5652174,71.1956522 C65.0628961,71.1956522 61.4130435,67.5457996 61.4130435,63.0434783 C61.4130435,58.5411569 65.0628961,54.8913043 69.5652174,54.8913043 C74.0675387,54.8913043 77.7173913,58.5411569 77.7173913,63.0434783 Z"/>
  </g>
</svg>
