<svg xmlns="http://www.w3.org/2000/svg" width="125" height="75" viewBox="0 0 125 75">
  <path fill="#E6EEF3" fill-rule="evenodd" d="M0.0188316411,50.9556992 C-0.128226654,51.9851072 0.607064821,52.352753 1.48941459,51.8380489 L26.5628539,36.7645737 C27.0040288,36.4704571 27.2246162,36.1763405 27.2981453,35.7351657 L27.4452036,35.0734033 C27.5922619,34.4851701 27.2246162,34.1175244 26.9304996,33.896937 L6.19528003,18.2352286 C5.3864594,17.6469954 4.50410963,18.0881703 4.35705134,19.2646366 L3.76881816,23.2352106 C3.69528901,23.7499146 3.91587646,24.1175604 4.20999305,24.3381478 L17.8128853,34.7792867 L17.8128853,34.926345 L1.26882715,45.1468965 C0.90118141,45.367484 0.533535673,45.7351297 0.460006526,46.396892 L0.0188316411,50.9556992 Z M47.2245443,72.8673851 L53.3274635,28.8969549 L49.8715936,28.8969549 C49.1363021,28.8969549 48.6951272,28.2351926 48.7686564,27.4999011 L49.2833604,24.1910895 C49.3568896,23.3822689 50.0186519,22.7940357 50.6804142,22.7940357 L54.1362842,22.7940357 L55.4598088,13.6764214 C56.7833335,4.55880714 62.0774321,0 69.0627011,0 C72.6656293,0 75.3126786,1.76469954 76.3420867,2.9411659 C76.7097324,3.38234078 76.7097324,4.11763226 76.3420867,4.63233629 L74.3567997,7.72056048 C73.989154,8.30879366 73.4009208,8.5293811 72.7391585,8.08820622 C71.8568087,7.42644389 70.0921092,6.61762327 68.5479971,6.61762327 C65.6803603,6.61762327 63.4009567,8.74996855 62.6656653,13.6764214 L61.3421406,22.7940357 L68.3274096,22.7940357 C68.9891719,22.7940357 69.503876,23.3822689 69.3568177,24.1910895 L68.9156428,27.4999011 C68.7685845,28.2351926 68.1803513,28.8969549 67.4450598,28.8969549 L60.53332,28.8969549 L54.4304007,72.8673851 C54.3568716,73.6026766 53.6215801,74.2644389 52.9598178,74.2644389 L48.2539524,74.2644389 C47.59219,74.2644389 47.1510151,73.6026766 47.2245443,72.8673851 Z M70.3862257,52.2056947 C69.7244634,52.2056947 69.2832885,51.5439324 69.3568177,50.8086409 L69.4303468,50.0733494 L82.95971,29.2646007 L82.95971,29.0440132 L74.2097414,29.0440132 C73.5479791,29.0440132 73.1803333,28.3822509 73.2538625,27.6469594 L73.6950374,24.1910895 C73.7685665,23.3822689 74.4303288,22.7940357 75.0920912,22.7940357 L92.2243825,22.7940357 C93.2537906,22.7940357 93.7684946,23.8234438 93.1067323,24.7793227 L79.50384,45.8086589 L79.50384,46.0292463 L87.8126337,46.0292463 C88.5479252,46.0292463 88.9155709,46.6174795 88.8420417,47.4263001 L88.4008669,50.8086409 C88.3273377,51.5439324 87.6655754,52.2056947 86.9302839,52.2056947 L70.3862257,52.2056947 Z M95.6067233,72.8673851 C95.5331942,73.6026766 95.974369,74.2644389 96.6361314,74.2644389 L101.341997,74.2644389 C102.003759,74.2644389 102.739051,73.6026766 102.81258,72.8673851 L108.915499,28.8969549 L115.827239,28.8969549 C116.56253,28.8969549 117.150764,28.2351926 117.297822,27.4999011 L117.738997,24.1910895 C117.886055,23.3822689 117.371351,22.7940357 116.709589,22.7940357 L109.72432,22.7940357 L111.047844,13.6764214 C111.783136,8.74996855 114.062539,6.61762327 116.930176,6.61762327 C118.474288,6.61762327 120.238988,7.42644389 121.121337,8.08820622 C121.7831,8.5293811 122.371333,8.30879366 122.738979,7.72056048 L124.724266,4.63233629 C125.091911,4.11763226 125.091911,3.38234078 124.724266,2.9411659 C123.694858,1.76469954 121.047808,0 117.44488,0 C110.459611,0 105.165512,4.55880714 103.841988,13.6764214 L102.518463,22.7940357 L99.0625932,22.7940357 C98.4008309,22.7940357 97.7390686,23.3822689 97.6655394,24.1910895 L97.1508354,27.4999011 C97.0773063,28.2351926 97.5184811,28.8969549 98.2537726,28.8969549 L101.709643,28.8969549 L95.6067233,72.8673851 Z"/>
</svg>
