<svg xmlns="http://www.w3.org/2000/svg" width="125" height="125" viewBox="0 0 125 125">
  <path fill="#E6EEF3" d="M122.642183,56.9307503 L68.066529,2.35781681 C64.9241336,-0.785938937 59.8269234,-0.785938937 56.6818073,2.35781681 L45.350139,13.6922058 L59.7248976,28.0669643 C63.0659032,26.9378785 66.8966329,27.6955903 69.5588267,30.3591445 C72.2373447,33.0390228 72.9882548,36.9024007 71.8306018,40.2556495 L85.6870691,54.1107565 C89.0403179,52.9544638 92.9064165,53.7026532 95.5835741,56.3838919 C99.324521,60.1248388 99.324521,66.1865331 95.5835741,69.9302007 C91.8399065,73.672508 85.7782122,73.672508 82.0331842,69.9302007 C79.2199922,67.114288 78.5234959,62.9788412 79.9504971,59.5126839 L67.0272259,46.5907731 L67.0272259,80.5953003 C67.9386566,81.0469346 68.7997546,81.6482068 69.5588267,82.4072789 C73.2997736,86.1482258 73.2997736,92.2099202 69.5588267,95.9549481 C65.8178798,99.6945347 59.7521045,99.6945347 56.0138782,95.9549481 C52.2729313,92.2085598 52.2729313,86.1468655 56.0138782,82.4072789 C56.9389124,81.4836051 58.0095034,80.7843881 59.1521926,80.3164297 L59.1521926,45.9949422 C58.0095034,45.5269838 56.9416331,44.8345685 56.0138782,43.904093 C53.180281,41.0718561 52.4987485,36.9119231 53.9515962,33.4321623 L39.7808893,19.2587348 L2.35781681,56.6777263 C-0.785938937,59.8242027 -0.785938937,64.9214129 2.35781681,68.0651687 L56.9361917,122.639463 C60.0785871,125.783218 65.174437,125.783218 68.3209134,122.639463 L122.642183,68.3181927 C125.785939,65.174437 125.785939,60.0745061 122.642183,56.9307503 Z"/>
</svg>
