<svg xmlns="http://www.w3.org/2000/svg" width="158" height="129" viewBox="0 0 158 129">
  <g fill="none" fill-rule="evenodd" transform="translate(2 2)">
    <rect width="153.289" height="125" stroke="#E6EEF3" stroke-width="4" rx="14"/>
    <path fill="#E6EEF3" fill-rule="nonzero" d="M24.7084991,35.5505668 C24.7188353,34.6099761 24.375163,33.8037674 23.677472,33.1319168 C22.9797811,32.4600662 21.8712441,31.8760818 20.3518282,31.3799459 C19.3905651,31.0801972 18.5223404,30.7339409 17.7471282,30.3411668 C16.9719159,29.9483926 16.3078274,29.4806882 15.7548427,28.9380397 C15.201858,28.3953911 14.7754976,27.7726466 14.4757489,27.0697875 C14.1760002,26.3669284 14.0261281,25.5555518 14.0261281,24.6356333 C14.0261281,23.7673956 14.1579122,22.981859 14.4214843,22.2789999 C14.6850565,21.5761409 15.0571528,20.9637324 15.5377843,20.4417561 C16.0184159,19.9197799 16.6024004,19.4985876 17.2897553,19.1781665 C17.9771101,18.8577455 18.7393907,18.6458573 19.5766199,18.5424957 L19.5766199,15.1315789 L21.8867407,15.1315789 L21.8867407,18.5424957 C23.6232161,18.7802274 24.9720652,19.5115 25.9333284,20.7363353 C26.8945915,21.9611707 27.3803839,23.6278519 27.39072,25.7364291 L24.5379533,25.7364291 C24.5379533,25.0439062 24.4526812,24.4056578 24.2821345,23.8216645 C24.1115878,23.2376713 23.8635237,22.7363749 23.5379345,22.3177603 C23.2123454,21.8991457 22.8118251,21.5709775 22.3363616,21.3332457 C21.8608981,21.095514 21.3182577,20.9766499 20.7084241,20.9766499 C19.4577484,20.9766499 18.5120036,21.3022341 17.8711615,21.9534124 C17.2303194,22.6045907 16.9047351,23.4831514 16.8943989,24.5891208 C16.8943989,25.1059289 16.977087,25.5658813 17.1424657,25.9689916 C17.3078443,26.372102 17.5688285,26.7390303 17.9254261,27.0697875 C18.2820237,27.4005447 18.7419761,27.708041 19.305297,27.9922855 C19.8686178,28.2765299 20.5482103,28.5530182 21.3440949,28.8217584 C22.3156942,29.1421795 23.1890869,29.4987717 23.9642991,29.8915459 C24.7395113,30.2843201 25.3958478,30.7442724 25.9333284,31.2714168 C26.4708088,31.7985611 26.8816651,32.4083855 27.1659096,33.1009085 C27.4501541,33.7934314 27.5922742,34.59964 27.5922742,35.5195586 C27.5922742,36.4188047 27.4501541,37.2250134 27.1659096,37.9382086 C26.8816651,38.6514038 26.4811448,39.2638123 25.9643366,39.7754524 C25.4475285,40.2870924 24.8196161,40.6979487 24.0805804,41.0080336 C23.3415447,41.3181186 22.5224161,41.5196707 21.6231699,41.6126961 L21.6231699,44.5894962 L19.313049,44.5894962 L19.313049,41.6282003 C18.5068283,41.545511 17.7342117,41.3594629 16.9951761,41.0700503 C16.2561404,40.7806378 15.6023879,40.3594454 15.0338989,39.8064607 C14.46541,39.253476 14.0106257,38.5583794 13.6695322,37.7211503 C13.3284389,36.8839211 13.1578947,35.8813283 13.1578947,34.7133418 L16.0261657,34.7133418 C16.0261657,35.5815795 16.1553657,36.3025161 16.4137698,36.8761732 C16.6721739,37.4498302 17.0055101,37.9071986 17.4137886,38.2482919 C17.822067,38.5893853 18.2846034,38.8322814 18.8014115,38.9769878 C19.3182197,39.121694 19.8401881,39.1940461 20.3673324,39.1940461 C21.039183,39.1940461 21.6438395,39.111358 22.1813199,38.9459794 C22.7188004,38.7806008 23.1735847,38.5402886 23.5456866,38.2250357 C23.9177885,37.9097827 24.2046127,37.5273504 24.4061679,37.0777273 C24.607723,36.6281042 24.7084991,36.1190559 24.7084991,35.5505668 Z M37.5393047,17.9666266 L51.9736842,17.9666266 L51.9736842,42.2926646 L37.5393047,42.2926646 L37.5393047,17.9666266 Z"/>
  </g>
</svg>
