<svg xmlns="http://www.w3.org/2000/svg" width="125" height="125" viewBox="0 0 125 125">
  <g fill="#E6EEF3">
    <rect width="17.46" height="16.865" x="54.066" y="53.865" transform="rotate(-18.518 62.796 62.297)"/>
    <rect width="17.46" height="16.865" x="54.066" y="53.865" transform="rotate(-18.518 62.796 62.297)"/>
    <path d="M119.642857,45.1388889 C106.845238,2.48015873 88.3928571,-7.44047619 45.734127,5.35714286 C3.07539683,18.1547619 -6.8452381,36.6071429 5.95238095,79.265873 C18.75,121.924603 37.202381,131.845238 79.8611111,119.047619 C122.519841,106.25 132.440476,87.797619 119.642857,45.1388889 Z M98.1150794,72.8174603 L90.0793651,75.4960317 L92.8571429,83.8293651 C93.9484127,87.202381 92.1626984,90.8730159 88.7896825,91.9642857 C88.0952381,92.1626984 87.3015873,92.3611111 86.6071429,92.2619048 C84.0277778,92.1626984 81.547619,90.4761905 80.6547619,87.8968254 L77.8769841,79.5634921 L61.3095238,85.1190476 L64.0873016,93.452381 C65.1785714,96.8253968 63.3928571,100.496032 60.0198413,101.587302 C59.3253968,101.785714 58.531746,101.984127 57.8373016,101.884921 C55.2579365,101.785714 52.7777778,100.099206 51.8849206,97.5198413 L49.1071429,89.1865079 L41.0714286,91.8650794 C40.3769841,92.0634921 39.5833333,92.2619048 38.8888889,92.1626984 C36.3095238,92.0634921 33.8293651,90.3769841 32.9365079,87.797619 C31.8452381,84.4246032 33.6309524,80.7539683 37.0039683,79.6626984 L45.0396825,76.984127 L39.6825397,61.0119048 L31.6468254,63.6904762 C30.952381,63.8888889 30.1587302,64.0873016 29.4642857,63.9880952 C26.8849206,63.8888889 24.4047619,62.202381 23.5119048,59.6230159 C22.4206349,56.25 24.2063492,52.5793651 27.5793651,51.4880952 L35.6150794,48.8095238 L32.8373016,40.4761905 C31.7460317,37.1031746 33.531746,33.4325397 36.9047619,32.3412698 C40.2777778,31.25 43.9484127,33.0357143 45.0396825,36.4087302 L47.8174603,44.7420635 L64.3849206,39.1865079 L61.6071429,30.8531746 C60.515873,27.4801587 62.3015873,23.8095238 65.6746032,22.718254 C69.047619,21.6269841 72.718254,23.4126984 73.8095238,26.7857143 L76.5873016,35.1190476 L84.6230159,32.4404762 C87.9960317,31.3492063 91.6666667,33.1349206 92.7579365,36.5079365 C93.8492063,39.8809524 92.0634921,43.5515873 88.6904762,44.6428571 L80.6547619,47.3214286 L86.0119048,63.2936508 L94.047619,60.6150794 C97.4206349,59.5238095 101.09127,61.3095238 102.18254,64.6825397 C103.27381,68.0555556 101.488095,71.7261905 98.1150794,72.8174603 Z"/>
  </g>
</svg>
