<svg xmlns="http://www.w3.org/2000/svg" width="125" height="129" viewBox="0 0 125 129">
  <g fill="#E6EEF3">
    <path d="M124.974162 117.1875C124.570407 123.295579 119.485233 128.125 113.282449 128.125L11.7175511 128.125C5.50925514 128.125.428641826 123.302897.0257491001 117.1875L124.974162 117.1875zM64.84375 54.6875L64.84375 0 60.15625 0 60.15625 114.0625 64.84375 114.0625 64.84375 59.375 125 59.375 125 54.6875 64.84375 54.6875zM0 11.7238177C0 5.24893198 5.25153507 0 11.7175511 0L113.282449 0C119.753873 0 125 5.25384338 125 11.7238177L125 114.0625 0 114.0625 0 11.7238177z"/>
  </g>
</svg>
