<svg xmlns="http://www.w3.org/2000/svg" width="125" height="125" viewBox="0 0 125 125">
  <g fill="none" fill-rule="evenodd">
    <path fill="#E6EEF3" fill-rule="nonzero" d="M77.856882,15.6314853 L77.5832955,15.8803037 L77.5832955,20.9481342 L78.912672,22.1571594 L84.382556,22.1571594 L85.936211,23.7108143 L85.936211,27.0537113 L39.4745024,69.883428 L39.4745024,23.3001008 L40.5569926,22.2176106 L47.1959642,22.2176106 L48.7801379,20.7768556 L48.7801379,15.6485739 L47.808716,14.9658872 L62.5,0.274603255 L77.856882,15.6314853 Z M100.708733,38.4833367 L124.725396,62.5 L62.5,124.725396 L36.5072691,98.732666 L100.708733,38.4833367 Z M13.7732234,75.99862 L0.274603255,62.5 L13.7732234,49.0013798 L13.7732234,75.99862 Z"/>
    <polygon stroke="#E6EEF3" stroke-linejoin="bevel" stroke-width="2" points="85.436 22.657 85.436 26.835 39.975 68.742 39.975 22.718 47.196 22.718 47.389 22.718 47.532 22.588 49.117 21.147 49.28 20.998 49.28 20.777 49.28 15.649 49.28 15.389 49.068 15.239 47.605 14.212 47.476 14.121 47.318 14.121 6.683 14.121 6.49 14.121 6.347 14.251 5.017 15.46 4.854 15.609 4.854 15.83 4.854 21.069 4.854 21.29 5.017 21.439 6.369 22.668 6.512 22.798 6.705 22.798 13.273 22.798 13.273 110.073 13.273 110.295 13.437 110.443 14.766 111.652 14.909 111.782 15.103 111.782 23.134 111.782 23.332 111.782 23.476 111.647 120.842 20.275 121 20.127 121 19.91 121 15.88 121 15.659 120.836 15.51 119.319 14.13 119.176 14 118.982 14 79.101 14 78.908 14 78.765 14.13 77.247 15.51 77.083 15.659 77.083 15.88 77.083 20.948 77.083 21.169 77.247 21.318 78.576 22.527 78.719 22.657 78.913 22.657"/>
  </g>
</svg>
