<svg width="688" height="72" viewBox="0 0 688 72" fill="none" xmlns="http://www.w3.org/2000/svg">
<rect x="352" y="16" width="40" height="40" rx="20" fill="#002539"/>
<rect x="408" y="16" width="40" height="40" rx="20" fill="#063651"/>
<rect x="464" y="16" width="40" height="40" rx="20" fill="#005584"/>
<rect x="520" y="16" width="40" height="40" rx="20" fill="#127CB3"/>
<rect x="576" y="16" width="40" height="40" rx="20" fill="#A0D9F6"/>
<rect x="632" y="16" width="40" height="40" rx="20" fill="#DCEBF6"/>
<rect x="16" y="16" width="40" height="40" rx="20" fill="#F45950"/>
<rect x="72" y="16" width="40" height="40" rx="20" fill="#F7827D"/>
<rect x="128" y="16" width="40" height="40" rx="20" fill="#00B6F0"/>
<rect x="184" y="16" width="40" height="40" rx="20" fill="#FFBB00"/>
<rect x="240" y="16" width="40" height="40" rx="20" fill="#F2D770"/>
<rect x="296" y="16" width="40" height="40" rx="20" fill="#E6EEF3"/>
</svg>
